<mxfile host="app.diagrams.net" agent="Mozilla/5.0 (Windows NT 10.0; Win64; x64) AppleWebKit/537.36 (KHTML, like Gecko) Chrome/131.0.0.0 Safari/537.36" version="25.0.3">
  <diagram name="Page-1" id="BfiXKq1Vaqrl755jk1hW">
    <mxGraphModel dx="1956" dy="1040" grid="1" gridSize="10" guides="1" tooltips="1" connect="1" arrows="1" fold="1" page="1" pageScale="1" pageWidth="827" pageHeight="1169" math="0" shadow="0">
      <root>
        <mxCell id="0" />
        <mxCell id="1" parent="0" />
        <mxCell id="UgzHLojVrY5dG44BISYa-1" value="&lt;div style=&quot;font-family: Consolas, &amp;quot;Courier New&amp;quot;, monospace; font-size: 14px; line-height: 19px; white-space: pre;&quot;&gt;&lt;font color=&quot;#4ec9b0&quot;&gt;Surveys&lt;/font&gt;&lt;/div&gt;" style="rounded=0;whiteSpace=wrap;html=1;strokeColor=#82b366;fillColor=#d5e8d4;" vertex="1" parent="1">
          <mxGeometry x="565" y="260" width="120" height="60" as="geometry" />
        </mxCell>
        <mxCell id="UgzHLojVrY5dG44BISYa-2" value="لديه" style="rhombus;whiteSpace=wrap;html=1;fillColor=#dae8fc;strokeColor=#6c8ebf;" vertex="1" parent="1">
          <mxGeometry x="470" y="350" width="80" height="80" as="geometry" />
        </mxCell>
        <mxCell id="UgzHLojVrY5dG44BISYa-8" value="&lt;div style=&quot;font-family: Consolas, &amp;quot;Courier New&amp;quot;, monospace; font-size: 14px; line-height: 19px; white-space: pre;&quot;&gt;created_at&lt;/div&gt;" style="ellipse;whiteSpace=wrap;html=1;fillColor=#d5e8d4;strokeColor=#82b366;" vertex="1" parent="1">
          <mxGeometry x="470" y="120" width="90" height="40" as="geometry" />
        </mxCell>
        <mxCell id="UgzHLojVrY5dG44BISYa-11" value="" style="endArrow=none;html=1;rounded=0;entryX=0.5;entryY=1;entryDx=0;entryDy=0;exitX=0.5;exitY=0;exitDx=0;exitDy=0;" edge="1" parent="1" source="UgzHLojVrY5dG44BISYa-1" target="UgzHLojVrY5dG44BISYa-8">
          <mxGeometry width="50" height="50" relative="1" as="geometry">
            <mxPoint x="610" y="280" as="sourcePoint" />
            <mxPoint x="640" y="280" as="targetPoint" />
          </mxGeometry>
        </mxCell>
        <mxCell id="UgzHLojVrY5dG44BISYa-12" value="" style="endArrow=none;html=1;rounded=0;entryX=0.5;entryY=1;entryDx=0;entryDy=0;exitX=0.5;exitY=0;exitDx=0;exitDy=0;" edge="1" target="UgzHLojVrY5dG44BISYa-13" parent="1" source="UgzHLojVrY5dG44BISYa-1">
          <mxGeometry width="50" height="50" relative="1" as="geometry">
            <mxPoint x="730" y="280" as="sourcePoint" />
            <mxPoint x="760" y="280" as="targetPoint" />
          </mxGeometry>
        </mxCell>
        <mxCell id="UgzHLojVrY5dG44BISYa-13" value="&lt;div style=&quot;font-family: Consolas, &amp;quot;Courier New&amp;quot;, monospace; font-size: 14px; line-height: 19px; white-space: pre;&quot;&gt;category&lt;/div&gt;" style="ellipse;whiteSpace=wrap;html=1;fillColor=#d5e8d4;strokeColor=#82b366;" vertex="1" parent="1">
          <mxGeometry x="580" y="110" width="90" height="40" as="geometry" />
        </mxCell>
        <mxCell id="UgzHLojVrY5dG44BISYa-14" value="&lt;div style=&quot;font-family: Consolas, &amp;quot;Courier New&amp;quot;, monospace; font-size: 14px; line-height: 19px; white-space: pre;&quot;&gt;name&lt;/div&gt;" style="ellipse;whiteSpace=wrap;html=1;fillColor=#d5e8d4;strokeColor=#82b366;" vertex="1" parent="1">
          <mxGeometry x="690" y="110" width="90" height="40" as="geometry" />
        </mxCell>
        <mxCell id="UgzHLojVrY5dG44BISYa-15" value="" style="endArrow=none;html=1;rounded=0;entryX=0.5;entryY=1;entryDx=0;entryDy=0;exitX=0.5;exitY=0;exitDx=0;exitDy=0;" edge="1" target="UgzHLojVrY5dG44BISYa-14" parent="1" source="UgzHLojVrY5dG44BISYa-1">
          <mxGeometry width="50" height="50" relative="1" as="geometry">
            <mxPoint x="720" y="280" as="sourcePoint" />
            <mxPoint x="870" y="280" as="targetPoint" />
          </mxGeometry>
        </mxCell>
        <mxCell id="UgzHLojVrY5dG44BISYa-19" value="" style="endArrow=none;html=1;rounded=0;entryX=0.25;entryY=1;entryDx=0;entryDy=0;exitX=1;exitY=0.5;exitDx=0;exitDy=0;" edge="1" parent="1" source="UgzHLojVrY5dG44BISYa-2" target="UgzHLojVrY5dG44BISYa-1">
          <mxGeometry width="50" height="50" relative="1" as="geometry">
            <mxPoint x="570" y="390" as="sourcePoint" />
            <mxPoint x="630" y="370" as="targetPoint" />
            <Array as="points">
              <mxPoint x="595" y="390" />
            </Array>
          </mxGeometry>
        </mxCell>
        <mxCell id="UgzHLojVrY5dG44BISYa-110" value="1" style="edgeLabel;html=1;align=center;verticalAlign=middle;resizable=0;points=[];" vertex="1" connectable="0" parent="UgzHLojVrY5dG44BISYa-19">
          <mxGeometry x="0.8061" relative="1" as="geometry">
            <mxPoint x="-15" y="-1" as="offset" />
          </mxGeometry>
        </mxCell>
        <mxCell id="UgzHLojVrY5dG44BISYa-20" value="" style="endArrow=none;html=1;rounded=0;entryX=0;entryY=0.5;entryDx=0;entryDy=0;" edge="1" parent="1" target="UgzHLojVrY5dG44BISYa-2">
          <mxGeometry width="50" height="50" relative="1" as="geometry">
            <mxPoint x="340" y="390" as="sourcePoint" />
            <mxPoint x="350" y="410" as="targetPoint" />
          </mxGeometry>
        </mxCell>
        <mxCell id="UgzHLojVrY5dG44BISYa-21" value="&lt;div style=&quot;font-family: Consolas, &amp;quot;Courier New&amp;quot;, monospace; font-size: 14px; line-height: 19px; white-space: pre;&quot;&gt;&lt;div style=&quot;line-height: 19px;&quot;&gt;Answers&lt;/div&gt;&lt;/div&gt;" style="rounded=0;whiteSpace=wrap;html=1;fillColor=#f8cecc;strokeColor=#b85450;" vertex="1" parent="1">
          <mxGeometry x="280" y="430" width="120" height="60" as="geometry" />
        </mxCell>
        <mxCell id="UgzHLojVrY5dG44BISYa-22" value="" style="endArrow=none;html=1;rounded=0;exitX=0.5;exitY=0;exitDx=0;exitDy=0;" edge="1" parent="1" source="UgzHLojVrY5dG44BISYa-21">
          <mxGeometry width="50" height="50" relative="1" as="geometry">
            <mxPoint x="240" y="440" as="sourcePoint" />
            <mxPoint x="340" y="390" as="targetPoint" />
          </mxGeometry>
        </mxCell>
        <mxCell id="UgzHLojVrY5dG44BISYa-111" value="M" style="edgeLabel;html=1;align=center;verticalAlign=middle;resizable=0;points=[];" vertex="1" connectable="0" parent="UgzHLojVrY5dG44BISYa-22">
          <mxGeometry x="0.0636" y="1" relative="1" as="geometry">
            <mxPoint x="11" y="1" as="offset" />
          </mxGeometry>
        </mxCell>
        <mxCell id="UgzHLojVrY5dG44BISYa-23" value="" style="endArrow=none;html=1;rounded=0;entryX=0.5;entryY=1;entryDx=0;entryDy=0;exitX=0.25;exitY=0;exitDx=0;exitDy=0;" edge="1" target="UgzHLojVrY5dG44BISYa-24" parent="1" source="UgzHLojVrY5dG44BISYa-21">
          <mxGeometry width="50" height="50" relative="1" as="geometry">
            <mxPoint x="245" y="460" as="sourcePoint" />
            <mxPoint x="260" y="480" as="targetPoint" />
          </mxGeometry>
        </mxCell>
        <mxCell id="UgzHLojVrY5dG44BISYa-24" value="&lt;div style=&quot;font-family: Consolas, &amp;quot;Courier New&amp;quot;, monospace; font-size: 14px; line-height: 19px; white-space: pre;&quot;&gt;created_at&lt;/div&gt;" style="ellipse;whiteSpace=wrap;html=1;fillColor=#d5e8d4;strokeColor=#82b366;" vertex="1" parent="1">
          <mxGeometry x="220" y="320" width="90" height="40" as="geometry" />
        </mxCell>
        <mxCell id="UgzHLojVrY5dG44BISYa-25" value="" style="endArrow=none;html=1;rounded=0;entryX=0.5;entryY=1;entryDx=0;entryDy=0;exitX=0;exitY=0;exitDx=0;exitDy=0;" edge="1" target="UgzHLojVrY5dG44BISYa-26" parent="1" source="UgzHLojVrY5dG44BISYa-21">
          <mxGeometry width="50" height="50" relative="1" as="geometry">
            <mxPoint x="300" y="440" as="sourcePoint" />
            <mxPoint x="280" y="480" as="targetPoint" />
          </mxGeometry>
        </mxCell>
        <mxCell id="UgzHLojVrY5dG44BISYa-26" value="&lt;div style=&quot;line-height: 19px;&quot;&gt;&lt;div style=&quot;line-height: 19px;&quot;&gt;&lt;font face=&quot;Tahoma&quot;&gt;answer_text&lt;/font&gt;&lt;/div&gt;&lt;/div&gt;" style="ellipse;whiteSpace=wrap;html=1;fillColor=#d5e8d4;strokeColor=#82b366;" vertex="1" parent="1">
          <mxGeometry x="110" y="330" width="90" height="40" as="geometry" />
        </mxCell>
        <mxCell id="UgzHLojVrY5dG44BISYa-27" value="يملك" style="rhombus;whiteSpace=wrap;html=1;fillColor=#dae8fc;strokeColor=#6c8ebf;" vertex="1" parent="1">
          <mxGeometry x="300" y="545" width="80" height="80" as="geometry" />
        </mxCell>
        <mxCell id="UgzHLojVrY5dG44BISYa-28" value="&lt;div style=&quot;font-family: Consolas, &amp;quot;Courier New&amp;quot;, monospace; font-size: 14px; line-height: 19px; white-space: pre;&quot;&gt;&lt;div style=&quot;line-height: 19px;&quot;&gt;Question&lt;/div&gt;&lt;/div&gt;" style="rounded=0;whiteSpace=wrap;html=1;fillColor=#f8cecc;strokeColor=#b85450;" vertex="1" parent="1">
          <mxGeometry x="280" y="680" width="120" height="60" as="geometry" />
        </mxCell>
        <mxCell id="UgzHLojVrY5dG44BISYa-29" value="" style="endArrow=none;html=1;rounded=0;entryX=0.5;entryY=1;entryDx=0;entryDy=0;exitX=0.5;exitY=0;exitDx=0;exitDy=0;" edge="1" parent="1" source="UgzHLojVrY5dG44BISYa-27" target="UgzHLojVrY5dG44BISYa-21">
          <mxGeometry width="50" height="50" relative="1" as="geometry">
            <mxPoint x="250" y="560" as="sourcePoint" />
            <mxPoint x="300" y="510" as="targetPoint" />
          </mxGeometry>
        </mxCell>
        <mxCell id="UgzHLojVrY5dG44BISYa-112" value="M" style="edgeLabel;html=1;align=center;verticalAlign=middle;resizable=0;points=[];" vertex="1" connectable="0" parent="UgzHLojVrY5dG44BISYa-29">
          <mxGeometry x="0.5835" y="-1" relative="1" as="geometry">
            <mxPoint x="9" as="offset" />
          </mxGeometry>
        </mxCell>
        <mxCell id="UgzHLojVrY5dG44BISYa-30" value="" style="endArrow=none;html=1;rounded=0;entryX=0.5;entryY=1;entryDx=0;entryDy=0;exitX=0.5;exitY=0;exitDx=0;exitDy=0;" edge="1" parent="1" source="UgzHLojVrY5dG44BISYa-28" target="UgzHLojVrY5dG44BISYa-27">
          <mxGeometry width="50" height="50" relative="1" as="geometry">
            <mxPoint x="260" y="700" as="sourcePoint" />
            <mxPoint x="310" y="650" as="targetPoint" />
          </mxGeometry>
        </mxCell>
        <mxCell id="UgzHLojVrY5dG44BISYa-113" value="1" style="edgeLabel;html=1;align=center;verticalAlign=middle;resizable=0;points=[];" vertex="1" connectable="0" parent="UgzHLojVrY5dG44BISYa-30">
          <mxGeometry x="-0.1273" relative="1" as="geometry">
            <mxPoint x="10" y="4" as="offset" />
          </mxGeometry>
        </mxCell>
        <mxCell id="UgzHLojVrY5dG44BISYa-31" value="&lt;div style=&quot;font-family: Consolas, &amp;quot;Courier New&amp;quot;, monospace; font-size: 14px; line-height: 19px; white-space: pre;&quot;&gt;text&lt;/div&gt;" style="ellipse;whiteSpace=wrap;html=1;fillColor=#d5e8d4;strokeColor=#82b366;" vertex="1" parent="1">
          <mxGeometry x="130" y="545" width="90" height="40" as="geometry" />
        </mxCell>
        <mxCell id="UgzHLojVrY5dG44BISYa-32" value="" style="endArrow=none;html=1;rounded=0;entryX=0.5;entryY=1;entryDx=0;entryDy=0;exitX=0;exitY=0;exitDx=0;exitDy=0;" edge="1" target="UgzHLojVrY5dG44BISYa-31" parent="1" source="UgzHLojVrY5dG44BISYa-28">
          <mxGeometry width="50" height="50" relative="1" as="geometry">
            <mxPoint x="250" y="680" as="sourcePoint" />
            <mxPoint x="170" y="705" as="targetPoint" />
          </mxGeometry>
        </mxCell>
        <mxCell id="UgzHLojVrY5dG44BISYa-33" value="" style="endArrow=none;html=1;rounded=0;exitX=0;exitY=0.25;exitDx=0;exitDy=0;entryX=1;entryY=0.5;entryDx=0;entryDy=0;" edge="1" target="UgzHLojVrY5dG44BISYa-34" parent="1" source="UgzHLojVrY5dG44BISYa-28">
          <mxGeometry width="50" height="50" relative="1" as="geometry">
            <mxPoint x="220" y="720" as="sourcePoint" />
            <mxPoint x="160" y="610" as="targetPoint" />
          </mxGeometry>
        </mxCell>
        <mxCell id="UgzHLojVrY5dG44BISYa-34" value="&lt;div style=&quot;font-family: Consolas, &amp;quot;Courier New&amp;quot;, monospace; font-size: 14px; line-height: 19px; white-space: pre;&quot;&gt;question_type&lt;/div&gt;" style="ellipse;whiteSpace=wrap;html=1;fillColor=#d5e8d4;strokeColor=#82b366;" vertex="1" parent="1">
          <mxGeometry x="20" y="580" width="130" height="50" as="geometry" />
        </mxCell>
        <mxCell id="UgzHLojVrY5dG44BISYa-35" value="" style="endArrow=none;html=1;rounded=0;entryX=1;entryY=0.5;entryDx=0;entryDy=0;exitX=0;exitY=0.5;exitDx=0;exitDy=0;" edge="1" target="UgzHLojVrY5dG44BISYa-36" parent="1" source="UgzHLojVrY5dG44BISYa-28">
          <mxGeometry width="50" height="50" relative="1" as="geometry">
            <mxPoint x="230" y="750" as="sourcePoint" />
            <mxPoint x="60" y="800" as="targetPoint" />
          </mxGeometry>
        </mxCell>
        <mxCell id="UgzHLojVrY5dG44BISYa-36" value="&lt;div style=&quot;font-family: Consolas, &amp;quot;Courier New&amp;quot;, monospace; font-size: 14px; line-height: 19px; white-space: pre;&quot;&gt;category&lt;/div&gt;" style="ellipse;whiteSpace=wrap;html=1;fillColor=#d5e8d4;strokeColor=#82b366;" vertex="1" parent="1">
          <mxGeometry x="20" y="640" width="90" height="40" as="geometry" />
        </mxCell>
        <mxCell id="UgzHLojVrY5dG44BISYa-37" value="&lt;div style=&quot;font-family: Consolas, &amp;quot;Courier New&amp;quot;, monospace; font-size: 14px; line-height: 19px; white-space: pre;&quot;&gt;is_active&lt;/div&gt;" style="ellipse;whiteSpace=wrap;html=1;fillColor=#d5e8d4;strokeColor=#82b366;" vertex="1" parent="1">
          <mxGeometry x="20" y="700" width="90" height="40" as="geometry" />
        </mxCell>
        <mxCell id="UgzHLojVrY5dG44BISYa-38" value="" style="endArrow=none;html=1;rounded=0;entryX=1;entryY=0.5;entryDx=0;entryDy=0;exitX=0;exitY=0.75;exitDx=0;exitDy=0;" edge="1" target="UgzHLojVrY5dG44BISYa-37" parent="1" source="UgzHLojVrY5dG44BISYa-28">
          <mxGeometry width="50" height="50" relative="1" as="geometry">
            <mxPoint x="280" y="770" as="sourcePoint" />
            <mxPoint x="60" y="860" as="targetPoint" />
          </mxGeometry>
        </mxCell>
        <mxCell id="UgzHLojVrY5dG44BISYa-39" value="&lt;div style=&quot;font-family: Consolas, &amp;quot;Courier New&amp;quot;, monospace; font-size: 14px; line-height: 19px; white-space: pre;&quot;&gt;&lt;div style=&quot;line-height: 19px;&quot;&gt;Choice&lt;/div&gt;&lt;/div&gt;" style="rounded=0;whiteSpace=wrap;html=1;fillColor=#f8cecc;strokeColor=#b85450;" vertex="1" parent="1">
          <mxGeometry x="280" y="970" width="120" height="60" as="geometry" />
        </mxCell>
        <mxCell id="UgzHLojVrY5dG44BISYa-40" value="" style="endArrow=none;html=1;rounded=0;exitX=0.5;exitY=0;exitDx=0;exitDy=0;entryX=0.5;entryY=1;entryDx=0;entryDy=0;" edge="1" source="UgzHLojVrY5dG44BISYa-42" parent="1" target="UgzHLojVrY5dG44BISYa-28">
          <mxGeometry width="50" height="50" relative="1" as="geometry">
            <mxPoint x="250" y="760" as="sourcePoint" />
            <mxPoint x="350" y="780" as="targetPoint" />
          </mxGeometry>
        </mxCell>
        <mxCell id="UgzHLojVrY5dG44BISYa-114" value="1" style="edgeLabel;html=1;align=center;verticalAlign=middle;resizable=0;points=[];" vertex="1" connectable="0" parent="UgzHLojVrY5dG44BISYa-40">
          <mxGeometry x="0.5255" relative="1" as="geometry">
            <mxPoint x="10" y="3" as="offset" />
          </mxGeometry>
        </mxCell>
        <mxCell id="UgzHLojVrY5dG44BISYa-41" value="" style="endArrow=none;html=1;rounded=0;entryX=0.5;entryY=1;entryDx=0;entryDy=0;exitX=0.5;exitY=0;exitDx=0;exitDy=0;" edge="1" target="UgzHLojVrY5dG44BISYa-42" parent="1">
          <mxGeometry width="50" height="50" relative="1" as="geometry">
            <mxPoint x="340" y="880" as="sourcePoint" />
            <mxPoint x="310" y="850" as="targetPoint" />
          </mxGeometry>
        </mxCell>
        <mxCell id="UgzHLojVrY5dG44BISYa-42" value="لديه" style="rhombus;whiteSpace=wrap;html=1;fillColor=#dae8fc;strokeColor=#6c8ebf;" vertex="1" parent="1">
          <mxGeometry x="300" y="810" width="80" height="80" as="geometry" />
        </mxCell>
        <mxCell id="UgzHLojVrY5dG44BISYa-45" value="" style="endArrow=none;html=1;rounded=0;exitX=0.5;exitY=0;exitDx=0;exitDy=0;entryX=0.5;entryY=1;entryDx=0;entryDy=0;" edge="1" parent="1" source="UgzHLojVrY5dG44BISYa-39" target="UgzHLojVrY5dG44BISYa-42">
          <mxGeometry width="50" height="50" relative="1" as="geometry">
            <mxPoint x="350" y="820" as="sourcePoint" />
            <mxPoint x="350" y="750" as="targetPoint" />
          </mxGeometry>
        </mxCell>
        <mxCell id="UgzHLojVrY5dG44BISYa-115" value="M" style="edgeLabel;html=1;align=center;verticalAlign=middle;resizable=0;points=[];" vertex="1" connectable="0" parent="UgzHLojVrY5dG44BISYa-45">
          <mxGeometry x="-0.5136" y="-1" relative="1" as="geometry">
            <mxPoint x="9" as="offset" />
          </mxGeometry>
        </mxCell>
        <mxCell id="UgzHLojVrY5dG44BISYa-46" value="" style="endArrow=none;html=1;rounded=0;entryX=1;entryY=0.5;entryDx=0;entryDy=0;exitX=0;exitY=0.25;exitDx=0;exitDy=0;" edge="1" target="UgzHLojVrY5dG44BISYa-47" parent="1" source="UgzHLojVrY5dG44BISYa-39">
          <mxGeometry width="50" height="50" relative="1" as="geometry">
            <mxPoint x="296.76" y="992.1400000000001" as="sourcePoint" />
            <mxPoint x="60" y="1080" as="targetPoint" />
          </mxGeometry>
        </mxCell>
        <mxCell id="UgzHLojVrY5dG44BISYa-47" value="&lt;div style=&quot;font-family: Consolas, &amp;quot;Courier New&amp;quot;, monospace; font-size: 14px; line-height: 19px; white-space: pre;&quot;&gt;text&lt;/div&gt;" style="ellipse;whiteSpace=wrap;html=1;fillColor=#d5e8d4;strokeColor=#82b366;" vertex="1" parent="1">
          <mxGeometry x="20" y="920" width="90" height="40" as="geometry" />
        </mxCell>
        <mxCell id="UgzHLojVrY5dG44BISYa-48" value="" style="endArrow=none;html=1;rounded=0;entryX=1;entryY=0.5;entryDx=0;entryDy=0;exitX=0;exitY=0.75;exitDx=0;exitDy=0;" edge="1" target="UgzHLojVrY5dG44BISYa-49" parent="1" source="UgzHLojVrY5dG44BISYa-39">
          <mxGeometry width="50" height="50" relative="1" as="geometry">
            <mxPoint x="270" y="1010" as="sourcePoint" />
            <mxPoint x="65" y="1140" as="targetPoint" />
          </mxGeometry>
        </mxCell>
        <mxCell id="UgzHLojVrY5dG44BISYa-49" value="&lt;div style=&quot;font-family: Consolas, &amp;quot;Courier New&amp;quot;, monospace; font-size: 14px; line-height: 19px; white-space: pre;&quot;&gt;question&lt;/div&gt;" style="ellipse;whiteSpace=wrap;html=1;fillColor=#d5e8d4;strokeColor=#82b366;" vertex="1" parent="1">
          <mxGeometry x="25" y="980" width="90" height="40" as="geometry" />
        </mxCell>
        <mxCell id="UgzHLojVrY5dG44BISYa-50" value="&lt;div style=&quot;font-family: Consolas, &amp;quot;Courier New&amp;quot;, monospace; font-size: 14px; line-height: 19px; white-space: pre;&quot;&gt;&lt;div style=&quot;line-height: 19px;&quot;&gt;user&lt;/div&gt;&lt;/div&gt;" style="rounded=0;whiteSpace=wrap;html=1;fillColor=#f8cecc;strokeColor=#b85450;" vertex="1" parent="1">
          <mxGeometry x="840" y="430" width="120" height="60" as="geometry" />
        </mxCell>
        <mxCell id="UgzHLojVrY5dG44BISYa-52" value="" style="endArrow=none;html=1;rounded=0;entryX=0.75;entryY=1;entryDx=0;entryDy=0;exitX=0;exitY=0.5;exitDx=0;exitDy=0;" edge="1" parent="1" source="UgzHLojVrY5dG44BISYa-55" target="UgzHLojVrY5dG44BISYa-1">
          <mxGeometry width="50" height="50" relative="1" as="geometry">
            <mxPoint x="750" y="390" as="sourcePoint" />
            <mxPoint x="655" y="350" as="targetPoint" />
            <Array as="points">
              <mxPoint x="655" y="390" />
            </Array>
          </mxGeometry>
        </mxCell>
        <mxCell id="UgzHLojVrY5dG44BISYa-109" value="M" style="edgeLabel;html=1;align=center;verticalAlign=middle;resizable=0;points=[];" vertex="1" connectable="0" parent="UgzHLojVrY5dG44BISYa-52">
          <mxGeometry x="0.8249" relative="1" as="geometry">
            <mxPoint x="15" y="-4" as="offset" />
          </mxGeometry>
        </mxCell>
        <mxCell id="UgzHLojVrY5dG44BISYa-55" value="لديه" style="rhombus;whiteSpace=wrap;html=1;fillColor=#dae8fc;strokeColor=#6c8ebf;" vertex="1" parent="1">
          <mxGeometry x="747" y="350" width="80" height="80" as="geometry" />
        </mxCell>
        <mxCell id="UgzHLojVrY5dG44BISYa-56" value="" style="endArrow=none;html=1;rounded=0;exitX=1;exitY=0.5;exitDx=0;exitDy=0;" edge="1" parent="1" source="UgzHLojVrY5dG44BISYa-55">
          <mxGeometry width="50" height="50" relative="1" as="geometry">
            <mxPoint x="880" y="390" as="sourcePoint" />
            <mxPoint x="900" y="390" as="targetPoint" />
          </mxGeometry>
        </mxCell>
        <mxCell id="UgzHLojVrY5dG44BISYa-58" value="" style="endArrow=none;html=1;rounded=0;exitX=0.5;exitY=0;exitDx=0;exitDy=0;" edge="1" parent="1" source="UgzHLojVrY5dG44BISYa-50">
          <mxGeometry width="50" height="50" relative="1" as="geometry">
            <mxPoint x="903" y="440" as="sourcePoint" />
            <mxPoint x="900" y="390" as="targetPoint" />
          </mxGeometry>
        </mxCell>
        <mxCell id="UgzHLojVrY5dG44BISYa-108" value="1" style="edgeLabel;html=1;align=center;verticalAlign=middle;resizable=0;points=[];" vertex="1" connectable="0" parent="UgzHLojVrY5dG44BISYa-58">
          <mxGeometry x="-0.2333" y="-2" relative="1" as="geometry">
            <mxPoint x="8" y="1" as="offset" />
          </mxGeometry>
        </mxCell>
        <mxCell id="UgzHLojVrY5dG44BISYa-70" value="&lt;div style=&quot;font-family: Consolas, &amp;quot;Courier New&amp;quot;, monospace; font-size: 14px; line-height: 19px; white-space: pre;&quot;&gt;&lt;div style=&quot;line-height: 19px;&quot;&gt;Entitys&lt;/div&gt;&lt;/div&gt;" style="rounded=0;whiteSpace=wrap;html=1;fillColor=#f8cecc;strokeColor=#b85450;" vertex="1" parent="1">
          <mxGeometry x="840" y="970" width="120" height="60" as="geometry" />
        </mxCell>
        <mxCell id="UgzHLojVrY5dG44BISYa-74" value="&lt;div style=&quot;font-family: Consolas, &amp;quot;Courier New&amp;quot;, monospace; font-size: 14px; line-height: 19px; white-space: pre;&quot;&gt;name&lt;/div&gt;" style="ellipse;whiteSpace=wrap;html=1;fillColor=#d5e8d4;strokeColor=#82b366;" vertex="1" parent="1">
          <mxGeometry x="1070" y="860" width="90" height="40" as="geometry" />
        </mxCell>
        <mxCell id="UgzHLojVrY5dG44BISYa-75" value="" style="endArrow=none;html=1;rounded=0;exitX=1;exitY=0.25;exitDx=0;exitDy=0;" edge="1" target="UgzHLojVrY5dG44BISYa-74" parent="1" source="UgzHLojVrY5dG44BISYa-70">
          <mxGeometry width="50" height="50" relative="1" as="geometry">
            <mxPoint x="1010" y="970" as="sourcePoint" />
            <mxPoint x="1110" y="1020" as="targetPoint" />
          </mxGeometry>
        </mxCell>
        <mxCell id="UgzHLojVrY5dG44BISYa-76" value="&lt;div style=&quot;font-family: Consolas, &amp;quot;Courier New&amp;quot;, monospace; font-size: 14px; line-height: 19px; white-space: pre;&quot;&gt;description&lt;/div&gt;" style="ellipse;whiteSpace=wrap;html=1;fillColor=#d5e8d4;strokeColor=#82b366;" vertex="1" parent="1">
          <mxGeometry x="1110" y="915" width="120" height="50" as="geometry" />
        </mxCell>
        <mxCell id="UgzHLojVrY5dG44BISYa-77" value="" style="endArrow=none;html=1;rounded=0;exitX=1;exitY=0.5;exitDx=0;exitDy=0;" edge="1" target="UgzHLojVrY5dG44BISYa-76" parent="1" source="UgzHLojVrY5dG44BISYa-70">
          <mxGeometry width="50" height="50" relative="1" as="geometry">
            <mxPoint x="1000" y="1035" as="sourcePoint" />
            <mxPoint x="1150" y="1070" as="targetPoint" />
          </mxGeometry>
        </mxCell>
        <mxCell id="UgzHLojVrY5dG44BISYa-78" value="" style="endArrow=none;html=1;rounded=0;entryX=0.618;entryY=1.008;entryDx=0;entryDy=0;entryPerimeter=0;" edge="1" parent="1" target="UgzHLojVrY5dG44BISYa-1">
          <mxGeometry width="50" height="50" relative="1" as="geometry">
            <mxPoint x="640" y="880" as="sourcePoint" />
            <mxPoint x="630" y="550" as="targetPoint" />
          </mxGeometry>
        </mxCell>
        <mxCell id="UgzHLojVrY5dG44BISYa-116" value="M" style="edgeLabel;html=1;align=center;verticalAlign=middle;resizable=0;points=[];" vertex="1" connectable="0" parent="UgzHLojVrY5dG44BISYa-78">
          <mxGeometry x="0.9486" relative="1" as="geometry">
            <mxPoint x="-9" y="5" as="offset" />
          </mxGeometry>
        </mxCell>
        <mxCell id="UgzHLojVrY5dG44BISYa-79" value="مرتبط" style="rhombus;whiteSpace=wrap;html=1;fillColor=#dae8fc;strokeColor=#6c8ebf;" vertex="1" parent="1">
          <mxGeometry x="705" y="840" width="80" height="80" as="geometry" />
        </mxCell>
        <mxCell id="UgzHLojVrY5dG44BISYa-81" value="" style="endArrow=none;html=1;rounded=0;exitX=1;exitY=0.5;exitDx=0;exitDy=0;" edge="1" parent="1" source="UgzHLojVrY5dG44BISYa-79">
          <mxGeometry width="50" height="50" relative="1" as="geometry">
            <mxPoint x="790" y="960" as="sourcePoint" />
            <mxPoint x="800" y="880" as="targetPoint" />
          </mxGeometry>
        </mxCell>
        <mxCell id="UgzHLojVrY5dG44BISYa-82" value="" style="endArrow=none;html=1;rounded=0;entryX=0;entryY=0.5;entryDx=0;entryDy=0;" edge="1" parent="1" target="UgzHLojVrY5dG44BISYa-79">
          <mxGeometry width="50" height="50" relative="1" as="geometry">
            <mxPoint x="640" y="880" as="sourcePoint" />
            <mxPoint x="690" y="910" as="targetPoint" />
          </mxGeometry>
        </mxCell>
        <mxCell id="UgzHLojVrY5dG44BISYa-83" value="" style="endArrow=none;html=1;rounded=0;exitX=0;exitY=0.5;exitDx=0;exitDy=0;" edge="1" parent="1" source="UgzHLojVrY5dG44BISYa-70">
          <mxGeometry width="50" height="50" relative="1" as="geometry">
            <mxPoint x="850" y="1060" as="sourcePoint" />
            <mxPoint x="800" y="880" as="targetPoint" />
            <Array as="points">
              <mxPoint x="800" y="1000" />
            </Array>
          </mxGeometry>
        </mxCell>
        <mxCell id="UgzHLojVrY5dG44BISYa-117" value="1" style="edgeLabel;html=1;align=center;verticalAlign=middle;resizable=0;points=[];" vertex="1" connectable="0" parent="UgzHLojVrY5dG44BISYa-83">
          <mxGeometry x="-0.8048" y="-1" relative="1" as="geometry">
            <mxPoint x="2" y="-9" as="offset" />
          </mxGeometry>
        </mxCell>
        <mxCell id="UgzHLojVrY5dG44BISYa-88" value="" style="endArrow=none;html=1;rounded=0;entryX=0.5;entryY=1;entryDx=0;entryDy=0;exitX=0.5;exitY=0;exitDx=0;exitDy=0;" edge="1" target="UgzHLojVrY5dG44BISYa-89" parent="1" source="UgzHLojVrY5dG44BISYa-70">
          <mxGeometry width="50" height="50" relative="1" as="geometry">
            <mxPoint x="900" y="965" as="sourcePoint" />
            <mxPoint x="880" y="915" as="targetPoint" />
          </mxGeometry>
        </mxCell>
        <mxCell id="UgzHLojVrY5dG44BISYa-107" value="M" style="edgeLabel;html=1;align=center;verticalAlign=middle;resizable=0;points=[];" vertex="1" connectable="0" parent="UgzHLojVrY5dG44BISYa-88">
          <mxGeometry x="-0.4053" y="-1" relative="1" as="geometry">
            <mxPoint x="9" as="offset" />
          </mxGeometry>
        </mxCell>
        <mxCell id="UgzHLojVrY5dG44BISYa-89" value="يملك" style="rhombus;whiteSpace=wrap;html=1;fillColor=#dae8fc;strokeColor=#6c8ebf;" vertex="1" parent="1">
          <mxGeometry x="860" y="680" width="80" height="80" as="geometry" />
        </mxCell>
        <mxCell id="UgzHLojVrY5dG44BISYa-90" value="" style="endArrow=none;html=1;rounded=0;exitX=0.5;exitY=0;exitDx=0;exitDy=0;entryX=0.5;entryY=1;entryDx=0;entryDy=0;" edge="1" source="UgzHLojVrY5dG44BISYa-89" parent="1" target="UgzHLojVrY5dG44BISYa-50">
          <mxGeometry width="50" height="50" relative="1" as="geometry">
            <mxPoint x="820" y="825" as="sourcePoint" />
            <mxPoint x="900" y="780" as="targetPoint" />
          </mxGeometry>
        </mxCell>
        <mxCell id="UgzHLojVrY5dG44BISYa-106" value="M" style="edgeLabel;html=1;align=center;verticalAlign=middle;resizable=0;points=[];" vertex="1" connectable="0" parent="UgzHLojVrY5dG44BISYa-90">
          <mxGeometry x="0.1816" y="1" relative="1" as="geometry">
            <mxPoint x="11" as="offset" />
          </mxGeometry>
        </mxCell>
        <mxCell id="UgzHLojVrY5dG44BISYa-92" value="لديه" style="rhombus;whiteSpace=wrap;html=1;fillColor=#dae8fc;strokeColor=#6c8ebf;" vertex="1" parent="1">
          <mxGeometry x="860" y="1090" width="80" height="80" as="geometry" />
        </mxCell>
        <mxCell id="UgzHLojVrY5dG44BISYa-96" value="" style="endArrow=none;html=1;rounded=0;entryX=0.083;entryY=1;entryDx=0;entryDy=0;entryPerimeter=0;" edge="1" parent="1" target="UgzHLojVrY5dG44BISYa-70">
          <mxGeometry width="50" height="50" relative="1" as="geometry">
            <mxPoint x="850" y="1130" as="sourcePoint" />
            <mxPoint x="830" y="1080" as="targetPoint" />
          </mxGeometry>
        </mxCell>
        <mxCell id="UgzHLojVrY5dG44BISYa-118" value="1" style="edgeLabel;html=1;align=center;verticalAlign=middle;resizable=0;points=[];" vertex="1" connectable="0" parent="UgzHLojVrY5dG44BISYa-96">
          <mxGeometry x="0.6974" y="-2" relative="1" as="geometry">
            <mxPoint x="8" as="offset" />
          </mxGeometry>
        </mxCell>
        <mxCell id="UgzHLojVrY5dG44BISYa-98" value="" style="endArrow=none;html=1;rounded=0;entryX=0;entryY=0.5;entryDx=0;entryDy=0;" edge="1" parent="1" target="UgzHLojVrY5dG44BISYa-92">
          <mxGeometry width="50" height="50" relative="1" as="geometry">
            <mxPoint x="850" y="1130" as="sourcePoint" />
            <mxPoint x="850" y="1131" as="targetPoint" />
          </mxGeometry>
        </mxCell>
        <mxCell id="UgzHLojVrY5dG44BISYa-101" value="" style="endArrow=none;html=1;rounded=0;entryX=0.083;entryY=1;entryDx=0;entryDy=0;entryPerimeter=0;" edge="1" parent="1">
          <mxGeometry width="50" height="50" relative="1" as="geometry">
            <mxPoint x="950" y="1130" as="sourcePoint" />
            <mxPoint x="950" y="1030" as="targetPoint" />
          </mxGeometry>
        </mxCell>
        <mxCell id="UgzHLojVrY5dG44BISYa-119" value="M" style="edgeLabel;html=1;align=center;verticalAlign=middle;resizable=0;points=[];" vertex="1" connectable="0" parent="UgzHLojVrY5dG44BISYa-101">
          <mxGeometry x="0.6154" y="-1" relative="1" as="geometry">
            <mxPoint x="-11" as="offset" />
          </mxGeometry>
        </mxCell>
        <mxCell id="UgzHLojVrY5dG44BISYa-102" value="" style="endArrow=none;html=1;rounded=0;entryX=1;entryY=0.5;entryDx=0;entryDy=0;" edge="1" parent="1" target="UgzHLojVrY5dG44BISYa-92">
          <mxGeometry width="50" height="50" relative="1" as="geometry">
            <mxPoint x="950" y="1130" as="sourcePoint" />
            <mxPoint x="960" y="1130" as="targetPoint" />
          </mxGeometry>
        </mxCell>
      </root>
    </mxGraphModel>
  </diagram>
</mxfile>
